<?xml version="1.0" encoding="UTF-8" standalone="no"?>
<!-- Created with Inkscape (http://www.inkscape.org/) -->

<svg
   xmlns:dc="http://purl.org/dc/elements/1.1/"
   xmlns:cc="http://creativecommons.org/ns#"
   xmlns:rdf="http://www.w3.org/1999/02/22-rdf-syntax-ns#"
   xmlns:svg="http://www.w3.org/2000/svg"
   xmlns="http://www.w3.org/2000/svg"
   xmlns:sodipodi="http://sodipodi.sourceforge.net/DTD/sodipodi-0.dtd"
   xmlns:inkscape="http://www.inkscape.org/namespaces/inkscape"
   version="1.1"
   id="svg815"
   xml:space="preserve"
   width="342.90668"
   height="105.17332"
   viewBox="0 0 342.90668 105.17331"
   sodipodi:docname="Idaflieg Logo_invertiert.svg"
   inkscape:version="0.92.2 (5c3e80d, 2017-08-06)"><metadata
     id="metadata821"><rdf:RDF><cc:Work
         rdf:about=""><dc:format>image/svg+xml</dc:format><dc:type
           rdf:resource="http://purl.org/dc/dcmitype/StillImage" /><dc:title></dc:title></cc:Work></rdf:RDF></metadata><defs
     id="defs819" /><sodipodi:namedview
     pagecolor="#ffffff"
     bordercolor="#666666"
     borderopacity="1"
     objecttolerance="10"
     gridtolerance="10"
     guidetolerance="10"
     inkscape:pageopacity="0"
     inkscape:pageshadow="2"
     inkscape:window-width="1680"
     inkscape:window-height="987"
     id="namedview817"
     showgrid="false"
     inkscape:pagecheckerboard="true"
     inkscape:zoom="3.4557507"
     inkscape:cx="171.45334"
     inkscape:cy="77.086662"
     inkscape:window-x="1272"
     inkscape:window-y="874"
     inkscape:window-maximized="1"
     inkscape:current-layer="g823" /><g
     id="g823"
     inkscape:groupmode="layer"
     inkscape:label="ink_ext_XXXXXX"
     transform="matrix(1.3333333,0,0,-1.3333333,0,105.17332)"><g
       id="g825"
       transform="matrix(0.1003392,0,0,0.10140685,0.21702966,-35.437699)"><path
         d="m 170.836,848.594 1.664,80.836 c 0,0 -5.836,9.996 37.5,16.664 26.832,4.133 43.336,1.672 43.336,1.672 0,0 24.168,2.5 10,-10.836 l 9.164,-112.5 c 0,0 -0.836,-54.164 56.664,-52.5 57.5,1.664 316.672,6.664 316.672,6.664 0,0 94.168,1.672 112.5,10.836 18.328,9.164 11.66,3.336 45.828,52.5 34.172,49.164 50.836,53.336 50.836,53.336 0,0 10.004,9.164 43.336,9.164 0,0 16.668,-1.668 -5,-35.836 -21.672,-34.164 -10.836,-35 -10.836,-35 0,0 4.996,-14.168 31.664,-15 26.672,-0.828 130.006,-4.164 216.666,-44.164 l 50,-20 c 0,0 30.84,-12.5 -2.5,-23.34 -33.33,-10.82 -102.5,-26.66 -140,-28.32 -37.5,-1.68 -79.994,-5.84 -129.994,1.66 -50,7.5 -216.672,36.672 -260.836,35.84 l -278.336,9.16 -111.664,3.34 c 0,0 -29.164,-26.68 -60,3.32 l -21.664,5 c 0,0 -9.164,0.84 -10,10.84 -0.836,10 5,71.664 5,76.664"
         style="fill:#ffffff;fill-opacity:1;fill-rule:nonzero;stroke:#ffffff;stroke-opacity:1"
         id="path827"
         inkscape:connector-curvature="0" /><path
         d="m 751.246,471.52 25.414,69.171 c 0,0 7.086,9.168 25.836,6.668 18.75,-2.5 21.25,1.25 21.25,-42.5 0,-43.75 2.91,-57.91 2.91,-57.91 0,0 1.703,-2.402 4.383,-2.793 2.914,-0.41 4.582,-12.207 -0.633,-12.011 -5.195,0.214 0.551,-7.54 1.25,-8.34 0.422,-0.469 7.5,-13.125 27.09,-12.071 19.59,1.036 57.91,2.071 57.91,2.071 l 257.924,3.136 c 0,0 66.19,7.305 82.08,11.668 16.67,4.582 20.84,4.571 20.84,4.571 0,0 8.54,-0.821 12.5,18.554 3.76,18.438 12.29,36.875 12.29,36.875 0,0 19.17,42.911 23.12,48.125 3.97,5.196 1.45,7.286 18.54,7.696 17.09,0.429 14.8,-6.875 14.8,-6.875 0,0 13.73,-70.606 22.7,-77.91 8.96,-7.286 23.75,-6.661 23.75,-6.661 0,0 124.39,-0.214 186.05,-53.964 0,0 26.25,-20.215 -4.37,-27.911 -30.63,-7.714 -58.97,-14.785 -70.84,-15.839 -11.88,-1.036 -35.41,-3.106 -45.41,-2.696 -10,0.41 -72.52,6.25 -81.47,8.321 -8.96,2.089 -84.78,11.25 -96.46,11.875 -11.67,0.625 -419.364,18.554 -439.169,18.75 -19.785,0.214 -39.582,-0.625 -39.582,-0.625 0,0 -14.793,-14.375 -31.043,-0.411 l -48.332,6.661 c 0,0 -10,0.214 -1.25,23.554 8.75,23.321 17.922,50.821 17.922,50.821"
         style="fill:#ffffff;fill-opacity:1;fill-rule:nonzero;stroke:#ffffff;stroke-opacity:1"
         id="path829"
         inkscape:connector-curvature="0" /><path
         d="m 697.5,410.27 -571.66,-0.418 c 0,0 -118.12516,-5.207 -118.34,115.418 -0.23047,130 -2.5,392.5 -2.5,392.5 0,0 -1.03516,99.79 105,100 h 1258.34"
         style="fill:none;stroke:#ffffff;stroke-width:21.07614078;stroke-linecap:butt;stroke-linejoin:miter;stroke-miterlimit:4;stroke-dasharray:none;stroke-opacity:1;fill-opacity:1"
         id="path831"
         inkscape:connector-curvature="0" /><g
         id="g833"
         transform="scale(10)"><text
           transform="matrix(1,0,0,-1,139.014,85.157)"
           style="font-variant:normal;font-weight:normal;font-size:36px;font-family:Georgia;-inkscape-font-specification:Georgia;writing-mode:lr-tb;fill:#ffffff;fill-opacity:1;fill-rule:nonzero;stroke:none;"
           id="text837"><tspan
             x="0 10.548 31.212 49.355999 61.056 71.351997 81.900002 99.288002"
             y="0"
             sodipodi:role="line"
             id="tspan835">idaflieg</tspan></text>
</g></g></g></svg>